:SAMPLES-PER-SECOND 30
:FULLY-SPECIFIED
:DEGREES
234
root  37.0379 39.1942 2.6512 -166.667 -87.6382 161.649
RightUpLeg  -20.3075 -9.92421 0.293985
RightLeg  7.17007 -10.1488 2.60097
RightFoot  -0.90339 -0.610382 6.60548
RightToes  0.000482159 0.542163 -0.142577
Spine  28.7469 -1.16182 -0.219268
Spine1  -1.40233 -0.572506 -3.41228
HEad  -8.17527 6.95778 -7.76674
LeftShoulder1  10.0003 -14.7958 -47.7009
LeftArm  0.617941 12.4067 -22.9084
LeftForeArm  33.9744 -13.7513 -6.41526
LeftHand  -0.25398 0.0180481 5.50724
RightShoulder  5.1294 9.59578 33.2145
RightArm  -2.3555 -17.3317 40.1271
RightForeArm  12.3309 11.7457 7.23729
RightHand  -2.32221 7.16522 -21.6516
LeftUpLeg  11.2829 6.32079 -1.63906
LeftLeg  12.0221 12.8631 -2.53056
LeftFoot  -19.7619 0.169744 0.688401
LeftToes  1.06246e-005 4.65855e-005 -8.18503e-006
235
root  35.7683 38.8882 2.70595 -148.505 -87.607 143.242
RightUpLeg  -19.7575 -6.04284 -1.78345
RightLeg  2.17001 -14.9589 4.95184
RightFoot  -1.21492 -0.584975 6.50597
RightToes  0.000482159 0.542163 -0.142577
Spine  27.7902 -1.5388 -0.846325
Spine1  -1.3846 -1.24405 -2.79962
HEad  -7.67047 7.11831 -7.52083
LeftShoulder1  9.99604 -14.6315 -48.1183
LeftArm  1.85909 10.3032 -22.7537
LeftForeArm  33.5637 -14.4545 -6.33284
LeftHand  -0.25398 0.0180481 5.50724
RightShoulder  5.04462 9.39754 33.1592
RightArm  -5.95775 -20.9821 39.5259
RightForeArm  17.2262 9.28365 6.83412
RightHand  -2.24994 6.93946 -21.3597
LeftUpLeg  14.0956 6.09813 -2.28584
LeftLeg  11.3156 12.761 -2.86622
LeftFoot  -21.3456 0.159061 0.364415
LeftToes  1.06246e-005 4.65855e-005 -8.18503e-006
236
root  34.4526 38.5399 2.74378 -134.474 -87.7566 128.847
RightUpLeg  -19.9732 -5.46228 -2.07095
RightLeg  1.32664 -14.5484 5.04582
RightFoot  -1.67354 -0.590073 6.80844
RightToes  0.000482159 0.542163 -0.142577
Spine  27.2728 -1.90213 -1.00302
Spine1  -1.33179 -1.8315 -1.99522
HEad  -7.86598 6.94406 -7.34023
LeftShoulder1  9.96716 -14.538 -48.229
LeftArm  2.12901 8.1843 -23.3581
LeftForeArm  33.0721 -15.2966 -6.00638
LeftHand  -0.25398 0.0180481 5.50724
RightShoulder  4.95971 9.25287 32.9376
RightArm  -8.29851 -24.4101 38.7372
RightForeArm  18.0688 7.78711 6.24889
RightHand  -2.27125 6.99605 -21.4595
LeftUpLeg  16.8374 6.36636 -2.19506
LeftLeg  11.3009 11.3931 -3.12552
LeftFoot  -23.1642 0.0819479 -0.546744
LeftToes  1.06246e-005 4.65855e-005 -8.18503e-006
237
root  33.0648 38.2466 2.74618 -104.938 -88.5012 99.085
RightUpLeg  -20.4378 -6.06242 -1.33273
RightLeg  3.69279 -13.4962 4.00742
RightFoot  -0.91576 -0.49196 5.37239
RightToes  0.000482159 0.542163 -0.142577
Spine  26.909 -2.45284 -0.557514
Spine1  -1.28708 -2.58919 -0.757313
HEad  -8.4524 6.77602 -7.19898
LeftShoulder1  9.92814 -14.5671 -47.9601
LeftArm  1.87975 6.74739 -24.6446
LeftForeArm  31.7268 -16.761 -5.30851
LeftHand  -0.25398 0.0180481 5.50724
RightShoulder  4.83524 9.07283 32.5046
RightArm  -10.1016 -27.1729 38.0133
RightForeArm  17.4705 6.57546 5.64987
RightHand  -2.18844 6.79081 -21.0364
LeftUpLeg  19.3062 7.14833 -0.858051
LeftLeg  11.7857 8.56298 -3.25538
LeftFoot  -24.2712 -0.0276305 -1.53522
LeftToes  1.06246e-005 4.65855e-005 -8.18503e-006
238
root  31.5684 38.0811 2.73977 -29.7147 -88.9772 23.9619
RightUpLeg  -21.0094 -8.45359 0.70721
RightLeg  7.48688 -12.3164 2.70188
RightFoot  1.96943 -0.143627 1.43001
RightToes  0.000482159 0.542163 -0.142577
Spine  26.2873 -3.30547 1.04993
Spine1  -1.26148 -3.40873 0.367959
HEad  -9.02389 6.7886 -7.10567
LeftShoulder1  9.93213 -14.66 -47.7303
LeftArm  2.12626 6.22002 -25.9483
LeftForeArm  29.4074 -19.3849 -4.28322
LeftHand  -0.25398 0.0180481 5.50724
RightShoulder  4.6779 8.81224 32.04
RightArm  -11.9574 -29.1789 37.3512
RightForeArm  16.9466 5.56975 4.96944
RightHand  -2.05083 6.37791 -20.4265
LeftUpLeg  21.4286 8.44079 1.6626
LeftLeg  12.4925 5.20222 -2.91227
LeftFoot  -24.0426 -0.124422 -2.41131
LeftToes  1.06246e-005 4.65855e-005 -8.18503e-006
239
root  29.9737 38.0215 2.77145 40.9041 -87.9077 -46.575
RightUpLeg  -21.7118 -13.2164 4.27618
RightLeg  11.8783 -8.48948 1.2338
RightFoot  5.29198 0.41475 -2.62404
RightToes  0.000482159 0.542163 -0.142577
Spine  25.6691 -4.23803 4.07274
Spine1  -1.16086 -3.84566 0.730091
HEad  -9.9224 6.86325 -7.2482
LeftShoulder1  9.95682 -14.6771 -47.8053
LeftArm  2.29385 6.26919 -26.8609
LeftForeArm  27.7763 -22.9196 -3.62403
LeftHand  -0.25398 0.0180481 5.50724
RightShoulder  4.55568 8.57773 31.7651
RightArm  -13.7672 -30.1885 36.5296
RightForeArm  16.0496 4.96538 4.30512
RightHand  -1.98982 6.14374 -20.2236
LeftUpLeg  23.3988 10.302 4.93753
LeftLeg  13.7023 1.92112 -2.02745
LeftFoot  -22.9072 -0.32444 -4.55268
LeftToes  1.06246e-005 4.65855e-005 -8.18503e-006
240
root  28.3516 38.0226 2.82163 71.1484 -86.5561 -77.0819
RightUpLeg  -22.075 -18.072 8.15633
RightLeg  16.2868 -2.81167 -0.0455877
RightFoot  6.17981 0.790842 -4.87762
RightToes  0.000482159 0.542163 -0.142577
Spine  25.6175 -4.88713 7.45585
Spine1  -0.926329 -3.75371 0.74216
HEad  -11.611 7.24358 -7.79798
LeftShoulder1  9.91023 -14.5869 -47.8188
LeftArm  1.46406 6.53165 -27.6764
LeftForeArm  27.6897 -26.0982 -4.09825
LeftHand  -0.25398 0.0180481 5.50724
RightShoulder  4.55371 8.57374 31.7605
RightArm  -15.0955 -29.7835 35.442
RightForeArm  14.2244 4.76843 3.89665
RightHand  -1.98696 6.12299 -20.2296
LeftUpLeg  24.5981 12.3641 8.1649
LeftLeg  16.9161 -0.977551 -0.838395
LeftFoot  -20.6148 -0.58418 -8.85384
LeftToes  1.06246e-005 4.65855e-005 -8.18503e-006
241
root  26.7859 38.0848 2.8059 87.5569 -85.3186 -93.7236
RightUpLeg  -21.4069 -18.9719 9.92665
RightLeg  19.9259 -0.709408 -0.598863
RightFoot  4.04453 0.843924 -6.04385
RightToes  0.000482159 0.542163 -0.142577
Spine  25.8358 -5.14724 9.60127
Spine1  -0.671039 -3.52968 1.36859
HEad  -13.3531 8.01661 -8.26208
LeftShoulder1  9.78668 -14.5211 -47.3882
LeftArm  1.95232 6.88799 -28.7656
LeftForeArm  26.1328 -27.6856 -4.55346
LeftHand  -0.25398 0.0180481 5.50724
RightShoulder  4.67498 8.83259 31.953
RightArm  -15.8235 -27.9528 34.3933
RightForeArm  11.6613 4.92667 3.83204
RightHand  -1.97397 6.05474 -20.2168
LeftUpLeg  22.823 11.5266 9.32514
LeftLeg  24.1731 -0.165907 0.411933
LeftFoot  -14.7755 -0.294172 -13.0173
LeftToes  1.06246e-005 4.65855e-005 -8.18503e-006
242
root  25.3382 38.1771 2.70155 91.3851 -84.4301 -97.2437
RightUpLeg  -20.4146 -18.0973 10.4074
RightLeg  22.4916 -1.3898 -0.861517
RightFoot  0.779076 0.745593 -6.9547
RightToes  0.000482159 0.542163 -0.142577
Spine  25.58 -5.26836 10.6367
Spine1  -0.492325 -3.52617 2.6311
HEad  -13.7827 8.80238 -7.9601
LeftShoulder1  9.70473 -14.5751 -46.8397
LeftArm  3.53952 7.24295 -29.6837
LeftForeArm  23.806 -27.366 -4.60969
LeftHand  -0.25398 0.0180481 5.50724
RightShoulder  4.81223 9.10417 32.2268
RightArm  -16.27 -25.3008 33.8915
RightForeArm  8.89839 5.79305 4.04562
RightHand  -1.98747 5.97317 -20.4865
LeftUpLeg  17.1141 8.86037 9.07199
LeftLeg  35.3405 2.45413 2.23808
LeftFoot  -3.81545 0.858929 -13.3424
LeftToes  1.06246e-005 4.65855e-005 -8.18503e-006
243
root  24.0049 38.2492 2.57629 88.8153 -83.5815 -94.256
RightUpLeg  -19.4105 -18.2675 11.0154
RightLeg  24.3245 -1.75953 -1.08967
RightFoot  -2.05036 0.576278 -7.2267
RightToes  0.000482159 0.542163 -0.142577
Spine  25.0244 -5.58512 11.9422
Spine1  -0.373863 -3.57238 3.55063
HEad  -12.7035 9.02174 -6.92103
LeftShoulder1  9.73712 -14.6546 -46.7886
LeftArm  5.06037 7.53873 -29.9028
LeftForeArm  22.58 -25.9564 -4.36495
LeftHand  -0.25398 0.0180481 5.50724
RightShoulder  4.87284 9.16259 32.5299
RightArm  -16.4352 -22.4889 34.1157
RightForeArm  6.36348 8.10346 4.55985
RightHand  -2.08028 6.20279 -21.0022
LeftUpLeg  9.78588 6.38517 9.03932
LeftLeg  46.7661 3.17922 3.9864
LeftFoot  7.57981 1.62663 -10.0101
LeftToes  1.06246e-005 4.65855e-005 -8.18503e-006
244
root  22.6649 38.4065 2.45902 88.8994 -82.9888 -94.6737
RightUpLeg  -16.8905 -18.3618 10.8725
RightLeg  25.0093 -1.81873 -0.943173
RightFoot  -4.30651 0.378492 -6.60689
RightToes  0.000482159 0.542163 -0.142577
Spine  24.8711 -5.78747 13.2387
Spine1  -0.205692 -3.3103 3.52125
HEad  -11.2317 8.56991 -5.94682
LeftShoulder1  9.80738 -14.6182 -47.231
LeftArm  5.61984 8.03988 -29.5944
LeftForeArm  22.5934 -24.4234 -4.0344
LeftHand  -0.25398 0.0180481 5.50724
RightShoulder  4.86747 9.05022 32.8311
RightArm  -14.9017 -19.7442 34.8569
RightForeArm  3.30465 12.4374 5.20932
RightHand  -2.19482 6.73138 -21.198
LeftUpLeg  3.60346 4.82508 9.17165
LeftLeg  55.6845 2.56229 4.52442
LeftFoot  12.0078 1.39808 -7.03997
LeftToes  1.06246e-005 4.65855e-005 -8.18503e-006
245
root  21.2127 38.7688 2.30517 96.1593 -83.5174 -102.677
RightUpLeg  -12.6627 -17.1176 9.12089
RightLeg  23.9442 -2.28015 -0.462541
RightFoot  -6.20042 0.215369 -5.72832
RightToes  0.000482159 0.542163 -0.142577
Spine  24.6752 -5.2736 12.9045
Spine1  0.194514 -2.72378 3.02754
HEad  -10.129 7.85651 -5.62969
LeftShoulder1  9.83889 -14.5064 -47.6849
LeftArm  5.53728 9.17832 -29.1772
LeftForeArm  22.3463 -23.0787 -3.85071
LeftHand  -0.25398 0.0180481 5.50724
RightShoulder  4.82931 8.89051 33.0222
RightArm  -10.3065 -17.0805 35.906
RightForeArm  -1.38699 18.6911 5.29625
RightHand  -2.26609 7.20936 -21.0684
LeftUpLeg  -1.16662 4.69758 8.48074
LeftLeg  60.9411 2.13248 4.7485
LeftFoot  9.82565 1.03524 -5.87006
LeftToes  1.06246e-005 4.65855e-005 -8.18503e-006
246
root  19.7295 39.1484 2.11679 111.862 -84.821 -118.201
RightUpLeg  -9.39797 -14.926 6.6241
RightLeg  22.6879 -3.19166 0.0810913
RightFoot  -7.9752 0.098355 -5.18807
RightToes  0.000482159 0.542163 -0.142577
Spine  23.1171 -4.13574 11.2586
Spine1  0.971735 -2.02486 2.75596
HEad  -9.09885 7.15685 -5.77223
LeftShoulder1  9.8621 -14.4494 -47.953
LeftArm  5.54422 11.0036 -28.628
LeftForeArm  21.6986 -21.7231 -4.00079
LeftHand  -0.25398 0.0180481 5.50724
RightShoulder  4.7495 8.6979 32.9829
RightArm  -6.66236 -14.716 37.0158
RightForeArm  -3.64289 25.7344 5.59492
RightHand  -2.31948 7.41679 -21.2127
LeftUpLeg  -6.28329 5.22399 6.67444
LeftLeg  62.6678 2.21694 5.27746
LeftFoot  6.179 0.859831 -5.82106
LeftToes  1.06246e-005 4.65855e-005 -8.18503e-006
247
root  18.2491 39.4194 1.94211 135.779 -85.7869 -140.874
RightUpLeg  -7.85094 -13.1202 4.24234
RightLeg  22.1277 -3.7417 0.734579
RightFoot  -9.67017 0.00625129 -4.91133
RightToes  0.000482159 0.542163 -0.142577
Spine  20.0982 -2.89348 9.72855
Spine1  1.89416 -1.2776 2.45144
HEad  -7.80058 6.41661 -5.93857
LeftShoulder1  9.91429 -14.4616 -48.1768
LeftArm  5.71063 13.1785 -27.7713
LeftForeArm  22.176 -20.399 -4.32687
LeftHand  -0.25398 0.0180481 5.50724
RightShoulder  4.65106 8.50511 32.7889
RightArm  -5.78371 -12.79 37.9529
RightForeArm  -1.45232 32.6671 7.31351
RightHand  -2.34624 7.2589 -21.7029
LeftUpLeg  -12.0842 5.65363 4.33089
LeftLeg  61.4875 2.59522 5.76264
LeftFoot  4.20017 0.658727 -5.00467
LeftToes  1.06246e-005 4.65855e-005 -8.18503e-006
248
root  16.7523 39.6374 1.79228 159.795 -85.7645 -163.924
RightUpLeg  -5.81563 -12.0582 2.14691
RightLeg  21.1401 -3.65266 1.56563
RightFoot  -11.1823 -0.0690454 -4.6209
RightToes  0.000482159 0.542163 -0.142577
Spine  17.3255 -1.84209 8.86756
Spine1  2.64999 -0.469215 1.58175
HEad  -6.55467 5.66787 -6.03994
LeftShoulder1  9.95385 -14.4488 -48.4059
LeftArm  5.5512 15.4246 -26.7445
LeftForeArm  24.3705 -19.467 -4.56281
LeftHand  -0.25398 0.0180481 5.50724
RightShoulder  4.60904 8.43354 32.6692
RightArm  -4.36506 -10.9476 38.5072
RightForeArm  1.4475 39.2592 9.07253
RightHand  -2.27997 6.74749 -21.9546
LeftUpLeg  -16.814 6.03758 2.35076
LeftLeg  57.6873 3.05443 5.72179
LeftFoot  2.76905 0.414431 -3.48653
LeftToes  1.06246e-005 4.65855e-005 -8.18503e-006
